# xmcd CD database file
#
# Track frame offsets:
#	150
#	18955
#	38858
#	57663
#
# Disc length: 1030 seconds
#
# Revision: 0
# Processed by: cddbd v1.5.1PL0 Copyright (c) Steve Scherf et al.
# Submitted via: CDex 1.51
#
DISCID=2e040404
DTITLE=(アイシア)宮崎羽衣 - D.C.S.S〜ダ・カーポ セカンドシーズン〜 キャラクターソング アイシア
DYEAR=2005
DGENRE=Anime
TTITLE0=Magical signal!!
TTITLE1=Happy Endにしましょ？
TTITLE2=Magical signal!!(off vocal)
TTITLE3=Happy Endにしましょ?(off vocal)
EXTD=YEAR: 2005
EXTT0=
EXTT1=
EXTT2=
EXTT3=
PLAYORDER=
